<?xml version="1.0" encoding="iso-8859-1"?>
<!-- Generator: Adobe Illustrator 19.0.0, SVG Export Plug-In . SVG Version: 6.00 Build 0)  -->
<svg xmlns="http://www.w3.org/2000/svg" xmlns:xlink="http://www.w3.org/1999/xlink" version="1.1" id="Layer_1" x="0px" y="0px" viewBox="0 0 512 512" style="enable-background:new 0 0 512 512;" xml:space="preserve">
<circle style="fill:#FFDC64;" cx="256" cy="418.472" r="51.307"/>
<circle style="fill:#FF507D;" cx="127.733" cy="93.528" r="51.307"/>
<circle style="fill:#B4E66E;" cx="384.267" cy="256" r="51.307"/>
<circle style="fill:#D23C69;" cx="127.733" cy="93.528" r="25.119"/>
<circle style="fill:#A0D755;" cx="384.267" cy="256" r="25.119"/>
<circle style="fill:#FFC850;" cx="256" cy="418.472" r="25.119"/>
<path d="M8.017,264.017h317.484c3.928,28.931,28.776,51.307,58.767,51.307c32.711,0,59.324-26.612,59.324-59.324  s-26.612-59.324-59.324-59.324c-29.991,0-54.84,22.376-58.767,51.307H8.017C3.589,247.983,0,251.573,0,256  C0,260.427,3.589,264.017,8.017,264.017z M384.267,212.71c23.871,0,43.29,19.42,43.29,43.29s-19.42,43.29-43.29,43.29  c-23.871,0-43.29-19.42-43.29-43.29S360.397,212.71,384.267,212.71z"/>
<path d="M503.983,247.983h-34.205c-4.427,0-8.017,3.589-8.017,8.017c0,4.427,3.589,8.017,8.017,8.017h34.205  c4.427,0,8.017-3.589,8.017-8.017C512,251.573,508.411,247.983,503.983,247.983z"/>
<path d="M8.017,101.545h60.949c3.928,28.931,28.776,51.307,58.767,51.307c32.711,0,59.324-26.612,59.324-59.324  s-26.612-59.324-59.324-59.324c-29.991,0-54.84,22.376-58.767,51.307H8.017C3.589,85.511,0,89.101,0,93.528  C0,97.956,3.589,101.545,8.017,101.545z M127.733,50.238c23.871,0,43.29,19.42,43.29,43.29s-19.42,43.29-43.29,43.29  s-43.29-19.42-43.29-43.29S103.862,50.238,127.733,50.238z"/>
<path d="M213.244,101.545h290.739c4.427,0,8.017-3.589,8.017-8.017c0-4.427-3.589-8.017-8.017-8.017H213.244  c-4.427,0-8.017,3.589-8.017,8.017C205.228,97.956,208.817,101.545,213.244,101.545z"/>
<path d="M127.733,84.443c5.01,0,9.086,4.076,9.086,9.086c0,4.427,3.589,8.017,8.017,8.017c4.427,0,8.017-3.589,8.017-8.017  c0-13.851-11.268-25.119-25.119-25.119c-4.427,0-8.017,3.589-8.017,8.017S123.305,84.443,127.733,84.443z"/>
<path d="M503.983,410.455H341.511c-4.427,0-8.017,3.589-8.017,8.017c0,4.427,3.589,8.017,8.017,8.017h162.472  c4.427,0,8.017-3.589,8.017-8.017C512,414.044,508.411,410.455,503.983,410.455z"/>
<path d="M384.267,246.914c5.01,0,9.086,4.076,9.086,9.086c0,4.427,3.589,8.017,8.017,8.017c4.427,0,8.017-3.589,8.017-8.017  c0-13.851-11.268-25.119-25.119-25.119c-4.427,0-8.017,3.589-8.017,8.017S379.84,246.914,384.267,246.914z"/>
<path d="M256,359.148c-29.991,0-54.84,22.376-58.767,51.307H8.017c-4.427,0-8.017,3.589-8.017,8.017  c0,4.427,3.589,8.017,8.017,8.017h189.217c3.928,28.931,28.776,51.307,58.767,51.307c32.711,0,59.324-26.612,59.324-59.324  S288.711,359.148,256,359.148z M256,461.762c-23.871,0-43.29-19.42-43.29-43.29c0-23.871,19.42-43.29,43.29-43.29  s43.29,19.42,43.29,43.29C299.29,442.342,279.871,461.762,256,461.762z"/>
<path d="M256,393.353c-4.427,0-8.017,3.589-8.017,8.017c0,4.427,3.589,8.017,8.017,8.017c5.01,0,9.086,4.076,9.086,9.086  c0,4.427,3.589,8.017,8.017,8.017c4.427,0,8.017-3.589,8.017-8.017C281.119,404.621,269.851,393.353,256,393.353z"/>
<g>
</g>
<g>
</g>
<g>
</g>
<g>
</g>
<g>
</g>
<g>
</g>
<g>
</g>
<g>
</g>
<g>
</g>
<g>
</g>
<g>
</g>
<g>
</g>
<g>
</g>
<g>
</g>
<g>
</g>
</svg>
