<?xml version="1.0" encoding="iso-8859-1"?>
<!-- Generator: Adobe Illustrator 19.0.0, SVG Export Plug-In . SVG Version: 6.00 Build 0)  -->
<svg xmlns="http://www.w3.org/2000/svg" xmlns:xlink="http://www.w3.org/1999/xlink" version="1.1" id="Layer_1" x="0px" y="0px" viewBox="0 0 512 512" style="enable-background:new 0 0 512 512;" xml:space="preserve">
<path style="fill:#B4E66E;" d="M484.083,503.09H27.916c-10.498,0-19.007-8.509-19.007-19.007V27.916  c0-10.498,8.509-19.007,19.007-19.007h456.167c10.498,0,19.007,8.509,19.007,19.007v456.167  C503.09,494.581,494.581,503.09,484.083,503.09z"/>
<path style="fill:#A0D755;" d="M198.979,465.077c-83.978,0-152.056-68.078-152.056-152.056V8.91H27.916  C17.419,8.91,8.91,17.419,8.91,27.916v456.167c0,10.498,8.509,19.007,19.007,19.007h456.167c10.498,0,19.007-8.509,19.007-19.007  v-19.007H198.979z"/>
<polygon style="fill:#FFFFFF;" points="322.524,103.944 351.851,133.27 133.271,351.85 103.944,322.524 65.93,446.07   189.476,408.056 160.149,378.729 378.729,160.149 408.056,189.476 446.07,65.93 "/>
<path d="M484.083,0H27.916C12.523,0,0,12.523,0,27.916v456.167C0,499.477,12.523,512,27.916,512h456.167  C499.477,512,512,499.477,512,484.083V27.916C512,12.523,499.477,0,484.083,0z M494.181,484.083c0,5.568-4.53,10.097-10.097,10.097  H27.916c-5.568,0-10.097-4.53-10.097-10.097V27.916c0-5.568,4.53-10.097,10.097-10.097h456.167c5.568,0,10.097,4.53,10.097,10.097  V484.083z"/>
<path d="M443.449,57.415L319.904,95.429c-2.986,0.919-5.273,3.336-6.026,6.367c-0.753,3.033,0.138,6.238,2.347,8.447l23.026,23.026  l-9.737,9.738c-3.479,3.479-3.479,9.121,0,12.599c3.479,3.479,9.121,3.479,12.599,0l16.037-16.037c1.671-1.67,2.61-3.937,2.61-6.3  c0-2.363-0.939-4.629-2.61-6.3l-18.862-18.862l93.317-28.712l-28.712,93.317l-18.862-18.862c-3.479-3.479-9.121-3.479-12.599,0  L196.616,329.665c-3.479,3.479-3.479,9.121,0,12.599c1.739,1.739,4.02,2.61,6.3,2.61c2.28,0,4.561-0.87,6.3-2.61L378.729,172.75  l23.026,23.026c2.21,2.208,5.413,3.102,8.447,2.347c3.033-0.753,5.449-3.04,6.367-6.026l38.014-123.545  c0.971-3.154,0.118-6.586-2.215-8.92C450.035,57.296,446.604,56.444,443.449,57.415z"/>
<path d="M172.75,378.729l10.628-10.628c3.479-3.479,3.479-9.121,0-12.599c-3.479-3.479-9.121-3.479-12.599,0l-16.928,16.928  c-3.479,3.479-3.479,9.121,0,12.599l18.862,18.862l-93.317,28.712l28.712-93.317l18.862,18.862c3.479,3.479,9.121,3.479,12.599,0  l176.705-176.705c3.479-3.479,3.479-9.121,0-12.599c-3.479-3.479-9.121-3.479-12.599,0L133.271,339.25l-23.026-23.026  c-2.21-2.208-5.415-3.102-8.447-2.347c-3.033,0.753-5.449,3.04-6.367,6.026L57.416,443.449c-0.971,3.154-0.118,6.586,2.215,8.92  c1.696,1.696,3.972,2.61,6.301,2.61c0.874,0,1.757-0.128,2.619-0.394l123.545-38.014c2.986-0.919,5.273-3.336,6.026-6.367  c0.753-3.033-0.138-6.238-2.347-8.447L172.75,378.729z"/>
<g>
</g>
<g>
</g>
<g>
</g>
<g>
</g>
<g>
</g>
<g>
</g>
<g>
</g>
<g>
</g>
<g>
</g>
<g>
</g>
<g>
</g>
<g>
</g>
<g>
</g>
<g>
</g>
<g>
</g>
</svg>
