<?xml version="1.0" encoding="iso-8859-1"?>
<!-- Generator: Adobe Illustrator 19.0.0, SVG Export Plug-In . SVG Version: 6.00 Build 0)  -->
<svg xmlns="http://www.w3.org/2000/svg" xmlns:xlink="http://www.w3.org/1999/xlink" version="1.1" id="Layer_1" x="0px" y="0px" viewBox="0 0 512 512" style="enable-background:new 0 0 512 512;" xml:space="preserve">
<path style="fill:#E4EAF8;" d="M255.999,119.187c-100.737,0-189.708,48.237-243.131,121.91c-6.457,8.904-6.457,20.901,0,29.806  c53.424,73.674,142.395,121.91,243.131,121.91s189.708-48.237,243.131-121.91c6.457-8.904,6.457-20.901,0-29.806  C445.707,167.425,356.737,119.187,255.999,119.187z"/>
<path style="fill:#D5DCED;" d="M255.999,161.942c101.38,0,191.136,40.011,246.827,101.533c2.31-7.48,1.091-15.776-3.696-22.376  c-53.423-73.674-142.394-121.91-243.131-121.91S66.292,167.424,12.868,241.098c-4.786,6.6-6.005,14.897-3.696,22.376  C64.864,201.953,154.62,161.942,255.999,161.942z"/>
<circle style="fill:#707487;" cx="256.001" cy="238.9" r="119.712"/>
<circle style="fill:#464655;" cx="256.001" cy="238.9" r="59.856"/>
<g>
	<circle style="fill:#FFFFFF;" cx="217.522" cy="277.379" r="21.377"/>
	<circle style="fill:#FFFFFF;" cx="277.378" cy="217.523" r="12.826"/>
</g>
<path style="fill:#5B5D6E;" d="M154.208,176.123c31.851-9.124,66.073-14.182,101.791-14.182s69.94,5.057,101.791,14.182  c-21.091-34.122-58.73-56.936-101.791-56.936S175.299,142,154.208,176.123z"/>
<path d="M505.621,236.391c-56.858-78.409-150.174-125.22-249.621-125.22S63.236,157.982,6.379,236.391  c-8.506,11.729-8.506,27.489,0,39.217c56.858,78.409,150.174,125.22,249.621,125.22s192.763-46.811,249.621-125.22  C514.126,263.881,514.126,248.121,505.621,236.391z M492.641,266.197c-53.852,74.263-142.316,118.6-236.641,118.6  s-182.79-44.336-236.641-118.6c-4.423-6.099-4.423-14.295,0-20.394c38.738-53.422,95.389-91.357,159.247-108.442  c-30.571,23.359-50.334,60.181-50.334,101.537c0,70.43,57.298,127.728,127.728,127.728s127.728-57.298,127.728-127.728  c0-41.356-19.763-78.179-50.334-101.537c63.859,17.085,120.509,55.02,159.247,108.442  C497.064,251.903,497.064,260.099,492.641,266.197z M255.999,127.204c61.589,0,111.695,50.106,111.695,111.695  s-50.106,111.695-111.695,111.695s-111.695-50.106-111.695-111.695S194.411,127.204,255.999,127.204z"/>
<path d="M203.346,275.402c1.289,0,2.596-0.312,3.809-0.968c3.894-2.109,5.341-6.973,3.232-10.867  c-10.831-20.003-7.148-45.221,8.955-61.325c16.101-16.1,41.315-19.784,61.316-8.96c3.894,2.109,8.758,0.658,10.866-3.234  c2.107-3.894,0.658-8.758-3.234-10.866c-26.192-14.175-59.206-9.354-80.284,11.723c-21.082,21.083-25.9,54.101-11.717,80.295  C197.741,273.883,200.498,275.402,203.346,275.402z"/>
<path d="M231.34,284.516c-3.894-2.108-8.759-0.658-10.866,3.234s-0.658,8.758,3.234,10.866c10.05,5.439,21.106,8.082,32.105,8.082  c17.666,0,35.189-6.815,48.179-19.805c21.082-21.083,25.9-54.101,11.717-80.295c-2.108-3.893-6.971-5.34-10.866-3.232  c-3.894,2.109-5.341,6.973-3.232,10.867c10.831,20.003,7.148,45.221-8.955,61.325C276.555,291.655,251.34,295.34,231.34,284.516z"/>
<g>
</g>
<g>
</g>
<g>
</g>
<g>
</g>
<g>
</g>
<g>
</g>
<g>
</g>
<g>
</g>
<g>
</g>
<g>
</g>
<g>
</g>
<g>
</g>
<g>
</g>
<g>
</g>
<g>
</g>
</svg>
